<?xml version="1.0" encoding="UTF-8" standalone="no" ?>
<!DOCTYPE svg PUBLIC "-//W3C//DTD SVG 1.1//EN" "http://www.w3.org/Graphics/SVG/1.1/DTD/svg11.dtd">
<svg xmlns="http://www.w3.org/2000/svg" xmlns:xlink="http://www.w3.org/1999/xlink" version="1.1" width="1080" height="1080" viewBox="0 0 1080 1080" xml:space="preserve">
<desc>Created with Fabric.js 5.2.4</desc>
<defs>
</defs>
<rect x="0" y="0" width="100%" height="100%" fill="transparent"></rect>
<g transform="matrix(1 0 0 1 540 540)" id="71694037-5365-4e23-aeab-613281cc408b"  >
<rect style="stroke: none; stroke-width: 1; stroke-dasharray: none; stroke-linecap: butt; stroke-dashoffset: 0; stroke-linejoin: miter; stroke-miterlimit: 4; fill: rgb(15,14,14); fill-opacity: 0.82; fill-rule: nonzero; opacity: 1;" vector-effect="non-scaling-stroke"  x="-540" y="-540" rx="0" ry="0" width="1080" height="1080" />
</g>
<g transform="matrix(1 0 0 1 540 540)" id="fe792fb5-13a8-4c24-b864-4d7b714adeb6"  >
</g>
<g transform="matrix(1 0 0 1 540 540)"  >
<g style="opacity: 1;" vector-effect="non-scaling-stroke"   >
		<g transform="matrix(0.13 0 0 -0.13 31.97 -1.11)"  >
<path style="stroke: none; stroke-width: 1; stroke-dasharray: none; stroke-linecap: butt; stroke-dashoffset: 0; stroke-linejoin: miter; stroke-miterlimit: 4; fill: rgb(232,225,225); fill-rule: nonzero; opacity: 1;" vector-effect="non-scaling-stroke"  transform=" translate(-4714.76, -4608.8)" d="M 3314 5932 C 3304 5930 3291 5924 3286 5920 C 3276 5910 3278 5468 3289 5457 C 3294 5452 3477 5449 3696 5449 C 3916 5449 4123 5447 4158 5444 L 4220 5438 L 4220 4367 C 4220 3779 4222 3294 4225 3291 C 4229 3288 4543 3285 4923 3284 C 5510 3282 5618 3284 5638 3296 C 5650 3304 5660 3317 5660 3325 C 5660 3333 5666 3343 5673 3347 C 5684 3354 5725 3411 5755 3459 C 5761 3468 5775 3490 5788 3507 C 5800 3524 5810 3545 5810 3553 C 5810 3561 5826 3585 5845 3604 C 5864 3624 5880 3645 5880 3650 C 5880 3656 5888 3668 5898 3678 C 5922 3703 5983 3779 5994 3799 C 6004 3816 6005 3817 6048 3867 C 6063 3884 6086 3920 6099 3947 C 6112 3973 6129 4007 6137 4022 C 6145 4038 6150 4083 6150 4139 C 6150 4218 6147 4232 6129 4249 C 6117 4260 6111 4273 6114 4279 C 6123 4293 6075 4375 6044 4399 C 6031 4409 6020 4425 6020 4433 C 6020 4441 5996 4468 5968 4492 C 5874 4569 5870 4573 5870 4590 C 5870 4599 5906 4644 5951 4691 C 6048 4792 6048 4793 6088 4853 C 6106 4879 6120 4910 6120 4921 C 6120 4932 6127 4948 6135 4956 C 6147 4968 6150 4998 6150 5088 C 6150 5218 6144 5250 6123 5250 C 6113 5250 6111 5256 6115 5270 C 6119 5282 6115 5301 6106 5315 C 6097 5328 6090 5344 6090 5351 C 6090 5364 6023 5478 6003 5498 C 5996 5505 5990 5516 5990 5522 C 5990 5528 5977 5546 5960 5562 C 5944 5577 5930 5596 5930 5603 C 5930 5609 5916 5631 5899 5650 C 5881 5669 5850 5708 5830 5735 C 5809 5763 5760 5819 5722 5859 L 5651 5934 L 4492 5934 C 3855 5935 3325 5933 3314 5932 z M 5672 5855 C 5765 5750 5839 5661 5866 5625 C 5882 5602 5901 5578 5908 5570 C 5932 5542 6008 5423 6015 5401 C 6018 5390 6026 5380 6031 5380 C 6036 5380 6040 5374 6040 5368 C 6041 5361 6049 5337 6060 5315 C 6071 5293 6079 5270 6080 5264 C 6080 5257 6086 5250 6094 5247 C 6106 5242 6109 5214 6108 5098 C 6107 4973 6105 4953 6089 4937 C 6078 4927 6070 4913 6070 4905 C 6070 4897 6066 4890 6060 4890 C 6055 4890 6050 4886 6050 4881 C 6050 4860 5989 4782 5911 4702 C 5843 4633 5830 4614 5830 4586 C 5830 4560 5838 4548 5868 4524 C 5902 4498 5999 4402 6026 4368 C 6032 4360 6041 4344 6044 4332 C 6048 4320 6055 4310 6060 4310 C 6065 4310 6072 4300 6076 4288 C 6079 4275 6087 4259 6093 4252 C 6109 4231 6110 4010 6094 4010 C 6087 4010 6078 4000 6075 3988 C 6071 3975 6057 3951 6044 3933 C 6031 3916 6020 3898 6020 3893 C 6020 3889 6000 3865 5975 3840 C 5951 3815 5931 3790 5930 3784 C 5930 3778 5920 3762 5908 3748 C 5845 3678 5770 3572 5770 3552 C 5770 3546 5766 3540 5761 3540 C 5756 3540 5747 3528 5742 3513 C 5736 3497 5720 3472 5706 3455 C 5692 3439 5676 3420 5670 3413 C 5665 3406 5660 3395 5660 3388 C 5659 3381 5649 3363 5637 3349 L 5615 3324 L 4935 3324 L 4255 3325 L 4250 4385 C 4247 5122 4242 5451 4234 5463 C 4224 5481 4198 5482 3774 5483 L 3325 5485 L 3322 5680 C 3321 5787 3322 5880 3325 5887 C 3329 5898 3546 5900 4483 5898 L 5637 5895 L 5672 5855 z" stroke-linecap="round" />
</g>
		<g transform="matrix(0.13 0 0 -0.13 87.86 -67.98)"  >
<path style="stroke: none; stroke-width: 1; stroke-dasharray: none; stroke-linecap: butt; stroke-dashoffset: 0; stroke-linejoin: miter; stroke-miterlimit: 4; fill: rgb(232,225,225); fill-rule: nonzero; opacity: 1;" vector-effect="non-scaling-stroke"  transform=" translate(-5133.95, -5110.33)" d="M 4886 5444 C 4841 5400 4841 5397 4844 5135 C 4847 4852 4850 4840 4924 4802 C 4973 4777 5080 4755 5112 4763 C 5207 4786 5229 4793 5259 4807 C 5296 4824 5309 4833 5343 4867 C 5380 4905 5390 4919 5390 4936 C 5390 4946 5398 4962 5408 4973 C 5422 4989 5425 5012 5425 5111 C 5425 5216 5423 5231 5406 5243 C 5396 5251 5390 5262 5394 5268 C 5401 5280 5330 5390 5314 5390 C 5308 5390 5295 5399 5285 5410 C 5275 5421 5261 5430 5254 5430 C 5247 5430 5240 5435 5238 5442 C 5235 5450 5184 5455 5068 5458 C 4922 5461 4901 5460 4886 5444 z M 5234 5397 C 5244 5388 5257 5380 5263 5380 C 5278 5379 5345 5293 5354 5263 C 5358 5250 5367 5240 5375 5240 C 5394 5240 5391 4992 5372 4970 C 5365 4962 5341 4931 5319 4903 C 5297 4874 5272 4850 5262 4850 C 5252 4850 5238 4844 5232 4838 C 5223 4829 5176 4824 5090 4822 L 4962 4818 L 4923 4853 L 4885 4888 L 4883 5135 C 4881 5448 4866 5424 5069 5419 C 5193 5416 5219 5412 5234 5397 z" stroke-linecap="round" />
</g>
		<g transform="matrix(0.13 0 0 -0.13 86.28 71.05)"  >
<path style="stroke: none; stroke-width: 1; stroke-dasharray: none; stroke-linecap: butt; stroke-dashoffset: 0; stroke-linejoin: miter; stroke-miterlimit: 4; fill: rgb(232,225,225); fill-rule: nonzero; opacity: 1;" vector-effect="non-scaling-stroke"  transform=" translate(-5122.09, -4067.64)" d="M 4926 4360 C 4909 4352 4884 4335 4872 4322 C 4849 4299 4849 4294 4848 4077 C 4848 3955 4849 3850 4849 3843 C 4850 3829 4916 3760 4929 3760 C 4934 3760 4951 3765 4967 3771 C 4994 3781 4994 3782 4976 3796 C 4965 3804 4949 3810 4940 3810 C 4931 3810 4915 3819 4904 3831 C 4887 3849 4885 3872 4881 4031 C 4877 4262 4881 4288 4927 4318 C 4959 4338 4973 4340 5086 4339 C 5192 4338 5212 4336 5231 4319 C 5244 4308 5261 4302 5269 4305 C 5289 4313 5346 4248 5354 4209 C 5361 4174 5385 4171 5394 4204 C 5400 4230 5393 4260 5380 4260 C 5376 4260 5369 4271 5366 4285 C 5361 4303 5353 4310 5335 4310 C 5322 4310 5307 4316 5303 4324 C 5299 4331 5278 4345 5257 4355 C 5205 4379 4974 4383 4926 4360 z" stroke-linecap="round" />
</g>
		<g transform="matrix(0.13 0 0 -0.13 124 65.07)"  >
<path style="stroke: none; stroke-width: 1; stroke-dasharray: none; stroke-linecap: butt; stroke-dashoffset: 0; stroke-linejoin: miter; stroke-miterlimit: 4; fill: rgb(232,225,225); fill-rule: nonzero; opacity: 1;" vector-effect="non-scaling-stroke"  transform=" translate(-5405, -4112.5)" d="M 5392 4113 C 5394 4086 5400 4065 5405 4065 C 5411 4065 5416 4086 5418 4113 C 5421 4151 5418 4160 5405 4160 C 5392 4160 5389 4151 5392 4113 z" stroke-linecap="round" />
</g>
		<g transform="matrix(0.13 0 0 -0.13 104.59 92.56)"  >
<path style="stroke: none; stroke-width: 1; stroke-dasharray: none; stroke-linecap: butt; stroke-dashoffset: 0; stroke-linejoin: miter; stroke-miterlimit: 4; fill: rgb(232,225,225); fill-rule: nonzero; opacity: 1;" vector-effect="non-scaling-stroke"  transform=" translate(-5259.41, -3906.3)" d="M 5360 4024 C 5354 4010 5350 3994 5350 3989 C 5350 3984 5339 3963 5326 3942 C 5314 3922 5300 3895 5296 3883 C 5292 3870 5283 3860 5275 3860 C 5268 3860 5260 3857 5258 3853 C 5253 3841 5189 3812 5153 3805 C 5110 3796 5111 3773 5155 3764 C 5181 3759 5199 3763 5227 3780 C 5271 3806 5360 3896 5360 3915 C 5360 3921 5369 3938 5381 3951 C 5396 3968 5400 3983 5396 4004 C 5393 4020 5390 4036 5390 4041 C 5390 4060 5369 4049 5360 4024 z" stroke-linecap="round" />
</g>
		<g transform="matrix(0.13 0 0 -0.13 76.33 112.73)"  >
<path style="stroke: none; stroke-width: 1; stroke-dasharray: none; stroke-linecap: butt; stroke-dashoffset: 0; stroke-linejoin: miter; stroke-miterlimit: 4; fill: rgb(232,225,225); fill-rule: nonzero; opacity: 1;" vector-effect="non-scaling-stroke"  transform=" translate(-5047.5, -3755)" d="M 5000 3755 C 5000 3742 5009 3739 5048 3742 C 5074 3744 5095 3750 5095 3755 C 5095 3761 5074 3766 5048 3768 C 5009 3771 5000 3768 5000 3755 z" stroke-linecap="round" />
</g>
		<g transform="matrix(0.13 0 0 -0.13 -146.42 51.91)"  >
<path style="stroke: none; stroke-width: 1; stroke-dasharray: none; stroke-linecap: butt; stroke-dashoffset: 0; stroke-linejoin: miter; stroke-miterlimit: 4; fill: rgb(232,225,225); fill-rule: nonzero; opacity: 1;" vector-effect="non-scaling-stroke"  transform=" translate(-3376.89, -4211.17)" d="M 3312 5149 C 3300 5144 3289 5133 3289 5123 C 3288 5113 3287 4840 3286 4515 C 3284 3982 3282 3922 3267 3895 C 3258 3879 3250 3859 3250 3853 C 3250 3846 3246 3840 3240 3840 C 3235 3840 3230 3834 3230 3827 C 3230 3820 3213 3800 3193 3783 C 3172 3766 3141 3738 3123 3722 C 3106 3706 3080 3690 3066 3686 C 3052 3683 3040 3675 3040 3670 C 3040 3664 3033 3660 3024 3660 C 3015 3660 2974 3644 2934 3625 C 2894 3606 2859 3590 2856 3590 C 2853 3590 2839 3580 2825 3568 C 2801 3547 2800 3541 2800 3435 C 2800 3362 2804 3318 2813 3307 C 2843 3267 3307 3251 3468 3286 C 3497 3292 3496 3316 3466 3324 C 3437 3331 3320 3316 3271 3299 C 3234 3286 3060 3294 3030 3310 C 3020 3315 2975 3321 2929 3322 L 2845 3325 L 2845 3430 L 2845 3534 L 2875 3550 C 2892 3558 2907 3568 2908 3573 C 2910 3577 2919 3580 2929 3580 C 2938 3580 2954 3586 2965 3594 C 2976 3601 2998 3610 3015 3614 C 3031 3618 3047 3625 3050 3628 C 3053 3632 3071 3643 3091 3653 C 3111 3663 3154 3696 3186 3726 C 3218 3755 3247 3780 3250 3780 C 3255 3780 3265 3799 3307 3887 C 3321 3915 3323 4000 3324 4517 L 3325 5115 L 3620 5115 L 3915 5115 L 3917 4501 C 3918 4142 3915 3867 3909 3836 C 3872 3640 3863 3612 3818 3556 C 3764 3488 3695 3426 3661 3415 C 3649 3412 3640 3404 3640 3399 C 3640 3394 3632 3390 3623 3390 C 3613 3389 3587 3381 3565 3370 C 3543 3359 3519 3351 3513 3350 C 3490 3350 3499 3320 3523 3319 C 3556 3317 3575 3321 3578 3331 C 3580 3335 3597 3342 3616 3346 C 3635 3349 3650 3356 3650 3361 C 3650 3366 3655 3370 3660 3370 C 3691 3370 3859 3524 3860 3552 C 3860 3561 3866 3573 3874 3577 C 3897 3591 3925 3663 3923 3705 C 3923 3729 3928 3752 3939 3764 C 3954 3780 3955 3843 3953 4462 C 3952 4836 3949 5145 3945 5148 C 3936 5158 3337 5158 3312 5149 z" stroke-linecap="round" />
</g>
</g>
</g>
</svg>